{
	"asset":{
		"generator":"Khronos glTF Blender I/O v3.6.27",
		"version":"2.0"
	},
	"extensionsUsed":[
		"KHR_materials_emissive_strength",
		"KHR_materials_specular",
		"KHR_materials_ior"
	],
	"scene":0,
	"scenes":[
		{
			"name":"Scene",
			"nodes":[
				0
			]
		}
	],
	"nodes":[
		{
			"mesh":0,
			"name":"Cube.015",
			"translation":[
				7.085592746734619,
				-0.012575522065162659,
				-0.8249044418334961
			]
		}
	],
	"materials":[
		{
			"doubleSided":true,
			"emissiveFactor":[
				1,
				1,
				1
			],
			"emissiveTexture":{
				"index":0
			},
			"extensions":{
				"KHR_materials_emissive_strength":{
					"emissiveStrength":11.800048828125
				},
				"KHR_materials_specular":{
					"specularColorTexture":{
						"index":1
					}
				},
				"KHR_materials_ior":{
					"ior":1.4500000476837158
				}
			},
			"name":"Material.003",
			"pbrMetallicRoughness":{
				"baseColorTexture":{
					"index":2
				},
				"metallicFactor":0,
				"roughnessFactor":0.5
			}
		}
	],
	"meshes":[
		{
			"name":"Cube.017",
			"primitives":[
				{
					"attributes":{
						"POSITION":0,
						"NORMAL":1,
						"TEXCOORD_0":2
					},
					"indices":3,
					"material":0
				}
			]
		}
	],
	"textures":[
		{
			"sampler":0,
			"source":0
		},
		{
			"sampler":0,
			"source":1
		},
		{
			"sampler":0,
			"source":2
		}
	],
	"images":[
		{
			"mimeType": "image/png",
			"name": "cube_emission",
			"uri": "cube_base_color.png"
		},
		{
			"mimeType":"image/png",
			"name":"Image",
			"uri":"Image.png"
		},
		{
			"mimeType":"image/png",
			"name":"cube_base_color",
			"uri":"cube_base_color.png"
		}
	],
	"accessors":[
		{
			"bufferView":0,
			"componentType":5126,
			"count":2338,
			"max":[
				2.5126006603240967,
				0.16110751032829285,
				2.0860507488250732
			],
			"min":[
				-2.6886329650878906,
				-0.16110751032829285,
				-0.19201263785362244
			],
			"type":"VEC3"
		},
		{
			"bufferView":1,
			"componentType":5126,
			"count":2338,
			"type":"VEC3"
		},
		{
			"bufferView":2,
			"componentType":5126,
			"count":2338,
			"type":"VEC2"
		},
		{
			"bufferView":3,
			"componentType":5123,
			"count":6054,
			"type":"SCALAR"
		}
	],
	"bufferViews":[
		{
			"buffer":0,
			"byteLength":28056,
			"byteOffset":0,
			"target":34962
		},
		{
			"buffer":0,
			"byteLength":28056,
			"byteOffset":28056,
			"target":34962
		},
		{
			"buffer":0,
			"byteLength":18704,
			"byteOffset":56112,
			"target":34962
		},
		{
			"buffer":0,
			"byteLength":12108,
			"byteOffset":74816,
			"target":34963
		}
	],
	"samplers":[
		{
			"magFilter":9729,
			"minFilter":9987
		}
	],
	"buffers":[
		{
			"byteLength":86924,
			"uri":"mp7.bin"
		}
	]
}
